<svg id="visual" viewBox="0 0 1600 900" width="1600" height="900" xmlns="http://www.w3.org/2000/svg" xmlns:xlink="http://www.w3.org/1999/xlink" version="1.1"><g transform="translate(818.7633107470834 454.59882685515515)"><path d="M150.5 -282.3C183 -241.9 188.9 -177.2 208.6 -126.1C228.2 -75 261.6 -37.5 287.3 14.8C313 67.2 331 134.3 317.2 195.5C303.3 256.7 257.7 312 199.5 338C141.3 364.1 70.7 361.1 12.9 338.7C-44.8 316.3 -89.7 274.6 -124.9 235.3C-160.1 196 -185.7 159 -235.6 120.2C-285.5 81.3 -359.8 40.7 -359.5 0.2C-359.2 -40.3 -284.4 -80.7 -249.6 -145.6C-214.7 -210.6 -219.9 -300.1 -184.9 -339.1C-150 -378.1 -75 -366.6 -8 -352.7C59 -338.9 118 -322.7 150.5 -282.3" fill="#000c14"></path></g></svg>