<svg xmlns="http://www.w3.org/2000/svg" viewBox="0 0 1600 900"><path fill="#c62368" d="M0 0h1600v900H0z"/><path fill="#001220" d="M1600 540c-32.4 1.1-64.8 2.2-93.8-8.2-28.9-10.4-54.4-32.4-84.1-43.2-29.6-10.7-63.5-10.2-90.6-23.5-27.1-13.4-47.6-40.6-65.7-66.8-18.2-26.1-34-51.3-50.4-75.6-16.3-24.3-33-47.8-50.1-71.7-17.1-23.9-34.6-48.1-51.1-74.2-16.6-26.1-32.2-54.1-41.1-83.9-8.9-29.8-11-61.3-13.1-92.9h540ZM0 360c30.2 6 60.4 12 92.7 14.1 32.3 2.1 66.8.3 92 18.5 25.2 18.1 41.2 56.3 62.3 79.6 21.1 23.3 47.2 31.7 75.7 43.2 28.4 11.6 59.1 26.3 74.1 51.6 15 25.4 14.3 61.3 25 89.5 10.6 28.2 32.6 48.5 46.2 73.2 13.5 24.6 18.7 53.5 29.3 82.6 10.6 29.1 26.7 58.4 42.7 87.7H0Z"/></svg>