<svg id="visual" viewBox="0 0 1600 900" width="1600" height="900" xmlns="http://www.w3.org/2000/svg" xmlns:xlink="http://www.w3.org/1999/xlink" version="1.1"><g transform="translate(806.1680841606773 501.5769128469627)"><path d="M182.6 -341C215.2 -297.5 205.5 -205.2 217.1 -140.3C228.8 -75.3 261.9 -37.7 292.7 17.7C323.4 73.2 351.8 146.3 330.8 195.1C309.8 243.9 239.4 268.3 176 273.9C112.7 279.5 56.3 266.2 8.3 251.8C-39.7 237.4 -79.3 221.7 -111.8 198.3C-144.3 174.9 -169.6 143.7 -213.9 109.4C-258.2 75 -321.6 37.5 -342.3 -11.9C-362.9 -61.3 -340.8 -122.7 -312.7 -185.2C-284.6 -247.7 -250.6 -311.3 -197.4 -343C-144.3 -374.7 -72.2 -374.3 1.4 -376.8C75 -379.2 150 -384.5 182.6 -341" fill="#000c14"></path></g></svg>