<svg xmlns="http://www.w3.org/2000/svg" viewBox="0 0 1600 900"><path fill="#c62368" d="M0 0h1600v900H0z"/><path fill="#001220" d="M1600 540c-30.9-2.3-61.9-4.6-93.8-8.2-31.9-3.7-64.8-8.7-89.9-27.2-25-18.5-42.2-50.5-69.8-65.5-27.6-15.1-65.5-13.2-90.4-29.3-24.9-16.1-36.7-50.2-50.6-78.8-13.9-28.5-29.9-51.6-46.3-76.5s-33.3-51.8-36.6-80.8c-3.3-28.9 7-60-1.2-89.3-8.2-29.3-34.8-56.9-61.4-84.4h540ZM0 360c32.4 5.2 64.8 10.3 89.4 32.8 24.7 22.5 41.5 62.4 66.9 77.8 25.4 15.3 59.3 6 82.2 16.3 22.9 10.3 35 40.1 64.9 51.5 29.9 11.5 77.8 4.6 99.5 23.5 21.8 18.9 17.5 63.5 9.3 100.1-8.2 36.6-20.2 65.2 5 86.1 25.3 20.9 87.9 34.1 114.6 58.1 26.7 24.1 17.4 58.9 8.2 93.8H0Z"/></svg>